<svg xmlns="http://www.w3.org/2000/svg" xmlns:xlink="http://www.w3.org/1999/xlink" width="450" zoomAndPan="magnify" viewBox="0 0 337.5 77.249999" height="103" preserveAspectRatio="xMidYMid meet" version="1.0"><defs><g/><clipPath id="89f011019e"><rect x="0" width="305" y="0" height="60"/></clipPath><clipPath id="17cd4d806c"><path d="M 177 26 L 211 26 L 211 61 L 177 61 Z M 177 26 " clip-rule="nonzero"/></clipPath><clipPath id="654a867ae1"><path d="M 182.914062 23.917969 L 210.378906 30.433594 L 203.351562 60.066406 L 175.886719 53.550781 Z M 182.914062 23.917969 " clip-rule="nonzero"/></clipPath><clipPath id="19eab37424"><path d="M 182.914062 23.917969 L 234.230469 36.089844 L 219.660156 97.523438 L 168.347656 85.351562 Z M 182.914062 23.917969 " clip-rule="nonzero"/></clipPath></defs><g transform="matrix(1, 0, 0, 1, 16, 8)"><g clip-path="url(#89f011019e)"><g fill="#000000" fill-opacity="1"><g transform="translate(1.248719, 42.739464)"><g><path d="M 16.9375 -9.953125 C 17.90625 -9.953125 18.710938 -10.296875 19.359375 -10.984375 C 20.003906 -11.679688 20.328125 -12.609375 20.328125 -13.765625 L 20.328125 -29.65625 L 31.34375 -29.65625 L 31.34375 -13.765625 C 31.34375 -10.941406 30.726562 -8.445312 29.5 -6.28125 C 28.269531 -4.125 26.570312 -2.429688 24.40625 -1.203125 C 22.25 0.0234375 19.757812 0.640625 16.9375 0.640625 C 14.113281 0.640625 11.625 0.0234375 9.46875 -1.203125 C 7.3125 -2.429688 5.617188 -4.125 4.390625 -6.28125 C 3.160156 -8.445312 2.546875 -10.941406 2.546875 -13.765625 L 2.546875 -29.65625 L 13.5625 -29.65625 L 13.5625 -13.765625 C 13.5625 -12.609375 13.882812 -11.679688 14.53125 -10.984375 C 15.175781 -10.296875 15.976562 -9.953125 16.9375 -9.953125 Z M 16.9375 -9.953125 "/></g></g></g><g fill="#000000" fill-opacity="1"><g transform="translate(32.426059, 42.739464)"><g><path d="M 20.75 0 L 13.5625 -13.125 L 13.5625 0 L 2.546875 0 L 2.546875 -29.65625 L 14.828125 -29.65625 L 22.03125 -16.515625 L 22.03125 -29.65625 L 33.046875 -29.65625 L 33.046875 0 Z M 20.75 0 "/></g></g></g><g fill="#000000" fill-opacity="1"><g transform="translate(65.297838, 42.739464)"><g><path d="M 13.5625 -29.65625 L 13.5625 -9.75 L 24.984375 -9.75 L 24.984375 0 L 2.546875 0 L 2.546875 -29.65625 Z M 13.5625 -29.65625 "/></g></g></g><g fill="#000000" fill-opacity="1"><g transform="translate(88.426588, 42.739464)"><g><path d="M 27.53125 0 L 18.640625 0 L 13.5625 -16.515625 L 13.5625 0 L 2.546875 0 L 2.546875 -29.65625 L 18.21875 -29.65625 L 23.078125 -13.5625 L 27.953125 -29.65625 L 43.625 -29.65625 L 43.625 0 L 32.609375 0 L 32.609375 -16.515625 Z M 27.53125 0 "/></g></g></g><g fill="#000000" fill-opacity="1"><g transform="translate(131.888608, 42.739464)"><g><path d="M 0.84375 -29.65625 L 27.953125 -29.65625 L 27.953125 -19.90625 L 19.90625 -19.90625 L 19.90625 0 L 8.890625 0 L 8.890625 -19.90625 L 0.84375 -19.90625 Z M 0.84375 -29.65625 "/></g></g></g><g fill="#000000" fill-opacity="1"><g transform="translate(157.982629, 42.739464)"><g><path d="M 13.5625 -8.890625 L 15.25 -8.890625 C 16.832031 -8.890625 18.070312 -9.375 18.96875 -10.34375 C 19.875 -11.320312 20.328125 -12.816406 20.328125 -14.828125 C 20.328125 -16.828125 19.875 -18.3125 18.96875 -19.28125 C 18.070312 -20.257812 16.832031 -20.75 15.25 -20.75 L 13.5625 -20.75 Z M 32.1875 -14.828125 C 32.1875 -11.773438 31.554688 -9.101562 30.296875 -6.8125 C 29.046875 -4.53125 27.164062 -2.753906 24.65625 -1.484375 C 22.144531 -0.210938 19.007812 0.421875 15.25 0.421875 C 12.988281 0.421875 10.890625 0.382812 8.953125 0.3125 C 7.023438 0.25 5.472656 0.179688 4.296875 0.109375 C 3.128906 0.0351562 2.546875 0 2.546875 0 L 2.546875 -29.65625 C 2.546875 -29.65625 3.128906 -29.6875 4.296875 -29.75 C 5.472656 -29.820312 7.023438 -29.894531 8.953125 -29.96875 C 10.890625 -30.039062 12.988281 -30.078125 15.25 -30.078125 C 19.007812 -30.078125 22.144531 -29.441406 24.65625 -28.171875 C 27.164062 -26.898438 29.046875 -25.117188 30.296875 -22.828125 C 31.554688 -20.546875 32.1875 -17.878906 32.1875 -14.828125 Z M 32.1875 -14.828125 "/></g></g></g><g fill="#000000" fill-opacity="1"><g transform="translate(189.159969, 42.739464)"><g/></g></g><g fill="#000000" fill-opacity="1"><g transform="translate(194.92072, 42.739464)"><g><path d="M 2.546875 -29.65625 L 24.5625 -29.65625 L 24.5625 -20.328125 L 13.5625 -20.328125 L 13.5625 -16.9375 L 22.453125 -16.9375 L 22.453125 -8.46875 L 13.5625 -8.46875 L 13.5625 0 L 2.546875 0 Z M 2.546875 -29.65625 "/></g></g></g><g fill="#000000" fill-opacity="1"><g transform="translate(217.625863, 42.739464)"><g><path d="M 16.9375 -9.953125 C 17.90625 -9.953125 18.710938 -10.296875 19.359375 -10.984375 C 20.003906 -11.679688 20.328125 -12.609375 20.328125 -13.765625 L 20.328125 -29.65625 L 31.34375 -29.65625 L 31.34375 -13.765625 C 31.34375 -10.941406 30.726562 -8.445312 29.5 -6.28125 C 28.269531 -4.125 26.570312 -2.429688 24.40625 -1.203125 C 22.25 0.0234375 19.757812 0.640625 16.9375 0.640625 C 14.113281 0.640625 11.625 0.0234375 9.46875 -1.203125 C 7.3125 -2.429688 5.617188 -4.125 4.390625 -6.28125 C 3.160156 -8.445312 2.546875 -10.941406 2.546875 -13.765625 L 2.546875 -29.65625 L 13.5625 -29.65625 L 13.5625 -13.765625 C 13.5625 -12.609375 13.882812 -11.679688 14.53125 -10.984375 C 15.175781 -10.296875 15.976562 -9.953125 16.9375 -9.953125 Z M 16.9375 -9.953125 "/></g></g></g><g fill="#000000" fill-opacity="1"><g transform="translate(248.803202, 42.739464)"><g><path d="M 31.765625 0 L 19.0625 0 L 13.984375 -9.75 L 13.5625 -9.75 L 13.5625 0 L 2.546875 0 L 2.546875 -29.65625 C 2.546875 -29.65625 2.882812 -29.675781 3.5625 -29.71875 C 4.238281 -29.757812 5.15625 -29.804688 6.3125 -29.859375 C 7.46875 -29.921875 8.78125 -29.972656 10.25 -30.015625 C 11.71875 -30.054688 13.242188 -30.078125 14.828125 -30.078125 C 17.929688 -30.078125 20.484375 -29.640625 22.484375 -28.765625 C 24.492188 -27.890625 25.976562 -26.675781 26.9375 -25.125 C 27.894531 -23.570312 28.375 -21.765625 28.375 -19.703125 C 28.375 -18.171875 28.179688 -16.875 27.796875 -15.8125 C 27.421875 -14.757812 26.976562 -13.90625 26.46875 -13.25 C 25.96875 -12.601562 25.523438 -12.140625 25.140625 -11.859375 C 24.753906 -11.578125 24.5625 -11.4375 24.5625 -11.4375 Z M 13.5625 -17.375 L 14.828125 -17.375 C 15.554688 -17.375 16.160156 -17.601562 16.640625 -18.0625 C 17.128906 -18.53125 17.375 -19.078125 17.375 -19.703125 C 17.375 -20.347656 17.128906 -20.894531 16.640625 -21.34375 C 16.160156 -21.800781 15.554688 -22.03125 14.828125 -22.03125 L 13.5625 -22.03125 Z M 13.5625 -17.375 "/></g></g></g><g fill="#000000" fill-opacity="1"><g transform="translate(277.015269, 42.739464)"><g><path d="M 11.65625 -8.046875 C 12.1875 -8.046875 12.597656 -8.179688 12.890625 -8.453125 C 13.191406 -8.722656 13.34375 -9.007812 13.34375 -9.3125 C 13.34375 -9.6875 13.066406 -10.003906 12.515625 -10.265625 C 11.960938 -10.535156 11.253906 -10.832031 10.390625 -11.15625 C 9.535156 -11.488281 8.617188 -11.882812 7.640625 -12.34375 C 6.671875 -12.8125 5.75 -13.40625 4.875 -14.125 C 4 -14.84375 3.285156 -15.738281 2.734375 -16.8125 C 2.179688 -17.882812 1.90625 -19.195312 1.90625 -20.75 C 1.90625 -22.394531 2.398438 -23.9375 3.390625 -25.375 C 4.378906 -26.8125 5.773438 -27.988281 7.578125 -28.90625 C 9.390625 -29.820312 11.523438 -30.28125 13.984375 -30.28125 C 15.898438 -30.28125 17.570312 -30.046875 19 -29.578125 C 20.425781 -29.117188 21.609375 -28.578125 22.546875 -27.953125 C 23.492188 -27.335938 24.207031 -26.796875 24.6875 -26.328125 C 25.175781 -25.859375 25.421875 -25.625 25.421875 -25.625 L 21.390625 -19.28125 C 21.390625 -19.28125 21.132812 -19.472656 20.625 -19.859375 C 20.113281 -20.253906 19.441406 -20.644531 18.609375 -21.03125 C 17.785156 -21.414062 16.878906 -21.609375 15.890625 -21.609375 C 15.347656 -21.609375 14.925781 -21.472656 14.625 -21.203125 C 14.332031 -20.929688 14.1875 -20.640625 14.1875 -20.328125 C 14.1875 -19.992188 14.460938 -19.6875 15.015625 -19.40625 C 15.566406 -19.125 16.28125 -18.816406 17.15625 -18.484375 C 18.03125 -18.160156 18.953125 -17.765625 19.921875 -17.296875 C 20.898438 -16.835938 21.816406 -16.242188 22.671875 -15.515625 C 23.535156 -14.796875 24.242188 -13.898438 24.796875 -12.828125 C 25.347656 -11.753906 25.625 -10.441406 25.625 -8.890625 C 25.625 -7.285156 25.128906 -5.753906 24.140625 -4.296875 C 23.148438 -2.847656 21.757812 -1.660156 19.96875 -0.734375 C 18.175781 0.179688 16.039062 0.640625 13.5625 0.640625 C 11.238281 0.640625 9.242188 0.382812 7.578125 -0.125 C 5.910156 -0.632812 4.546875 -1.226562 3.484375 -1.90625 C 2.429688 -2.582031 1.65625 -3.175781 1.15625 -3.6875 C 0.664062 -4.195312 0.421875 -4.453125 0.421875 -4.453125 L 4.453125 -10.796875 C 4.453125 -10.796875 4.625 -10.65625 4.96875 -10.375 C 5.320312 -10.09375 5.816406 -9.773438 6.453125 -9.421875 C 7.085938 -9.066406 7.847656 -8.75 8.734375 -8.46875 C 9.628906 -8.1875 10.601562 -8.046875 11.65625 -8.046875 Z M 11.65625 -8.046875 "/></g></g></g></g></g><g clip-path="url(#17cd4d806c)"><g clip-path="url(#654a867ae1)"><g clip-path="url(#19eab37424)"><path fill="#ffcc00" d="M 199.511719 92.691406 L 198.640625 92.484375 C 198.164062 92.308594 197.679688 92.160156 197.1875 92.039062 C 196.527344 91.875 196.035156 91.75 195.714844 91.660156 C 194.988281 91.453125 194.320312 91.296875 193.707031 91.191406 C 192.953125 91.0625 192.183594 90.832031 191.410156 90.710938 C 190.957031 90.636719 190.511719 90.535156 190.058594 90.449219 L 190.011719 90.4375 C 189.773438 90.367188 189.539062 90.289062 189.304688 90.203125 C 189.03125 90.105469 188.753906 90.054688 188.488281 89.929688 C 188.375 89.875 188.265625 89.828125 188.15625 89.78125 C 187.628906 89.550781 187.207031 89.222656 186.890625 88.792969 C 186.058594 87.667969 187.445312 86.558594 188.40625 86.378906 C 188.488281 86.363281 188.503906 86.324219 188.460938 86.253906 C 188.363281 86.105469 188.277344 85.953125 188.207031 85.792969 C 187.734375 84.78125 187.363281 83.722656 187.097656 82.613281 C 187.050781 82.417969 187 82.238281 186.949219 82.074219 C 186.929688 82.007812 186.90625 82.007812 186.878906 82.066406 C 186.4375 82.984375 186.003906 83.871094 185.570312 84.730469 C 185.210938 85.449219 184.863281 86.054688 184.527344 86.542969 C 183.96875 87.363281 183.292969 87.96875 182.246094 88.109375 C 181.066406 88.265625 179.867188 88.0625 178.644531 87.5 C 178.316406 87.351562 178.050781 87.15625 177.847656 86.917969 C 177.5 86.511719 177.546875 86 177.703125 85.511719 C 177.785156 85.25 177.894531 85.035156 178.03125 84.867188 C 178.457031 84.335938 179.027344 84.09375 179.742188 84.136719 C 180.695312 84.1875 181.207031 83.921875 181.6875 83.054688 C 181.757812 82.929688 181.835938 82.851562 181.847656 82.695312 C 181.851562 82.664062 181.863281 82.632812 181.878906 82.605469 C 181.957031 82.480469 182.015625 82.347656 182.054688 82.210938 C 182.28125 81.375 182.425781 80.679688 182.488281 80.125 C 182.53125 79.738281 182.660156 79.378906 182.675781 78.992188 C 182.691406 78.683594 182.808594 78.398438 182.804688 78.097656 C 182.804688 77.910156 182.828125 77.722656 182.878906 77.542969 C 182.941406 77.320312 182.890625 77.105469 182.941406 76.882812 C 182.988281 76.6875 183.007812 76.484375 183.003906 76.269531 C 183 76.183594 183.039062 76.105469 183.046875 76.023438 C 183.203125 74.386719 183.355469 72.753906 183.511719 71.117188 C 183.558594 70.632812 183.601562 70.089844 183.640625 69.496094 C 183.769531 67.488281 183.582031 65.523438 183.078125 63.597656 C 182.582031 61.703125 181.898438 59.832031 181.238281 58 C 180.636719 56.316406 180.1875 54.574219 180.28125 52.804688 C 180.296875 52.5625 180.324219 52.324219 180.367188 52.089844 C 180.410156 51.875 180.449219 51.640625 180.488281 51.390625 C 180.554688 50.949219 180.742188 50.554688 180.835938 50.128906 C 180.871094 49.980469 180.921875 49.839844 180.996094 49.710938 C 181.09375 49.535156 181.121094 49.347656 181.207031 49.160156 C 181.519531 48.492188 181.875 47.820312 182.273438 47.136719 C 182.582031 46.609375 182.855469 46.042969 183.074219 45.460938 C 183.132812 45.300781 183.195312 45.140625 183.261719 44.980469 C 183.324219 44.824219 183.375 44.664062 183.417969 44.507812 C 183.617188 43.757812 183.777344 43.066406 183.898438 42.433594 C 183.953125 42.15625 183.988281 41.808594 184.007812 41.394531 C 184.035156 40.707031 183.886719 40.007812 183.421875 39.527344 C 183.148438 39.246094 182.824219 38.949219 182.441406 38.636719 C 181.550781 37.902344 180.988281 37.015625 180.753906 35.984375 C 180.683594 35.667969 180.679688 35.347656 180.746094 35.015625 C 180.804688 34.730469 180.664062 34.441406 180.640625 34.160156 C 180.617188 33.867188 180.667969 33.601562 180.792969 33.355469 C 180.832031 33.277344 180.894531 33.234375 180.984375 33.226562 C 181.210938 33.210938 181.425781 33.195312 181.632812 33.183594 C 182.492188 33.128906 183.175781 32.691406 183.519531 31.917969 C 183.859375 31.144531 184.53125 30.75 185.328125 30.519531 C 186.238281 30.257812 187.183594 30.125 188.164062 30.125 C 188.214844 30.125 188.265625 30.132812 188.3125 30.148438 C 188.34375 30.15625 188.375 30.15625 188.40625 30.144531 C 188.5 30.113281 188.589844 30.113281 188.675781 30.144531 C 188.710938 30.15625 188.734375 30.144531 188.75 30.113281 C 188.910156 29.738281 189.03125 29.371094 189.109375 29.015625 C 189.195312 28.636719 189.378906 28.316406 189.464844 27.941406 C 189.511719 27.714844 189.632812 27.523438 189.710938 27.296875 C 189.777344 27.109375 189.878906 26.910156 190.015625 26.707031 C 190.296875 26.28125 190.699219 26.367188 190.890625 26.808594 C 190.980469 27.023438 191.097656 27.230469 191.171875 27.445312 C 191.550781 28.539062 191.914062 29.667969 192.257812 30.832031 C 192.277344 30.894531 192.316406 30.910156 192.371094 30.871094 C 193.292969 30.261719 194.269531 29.644531 195.304688 29.023438 C 195.964844 28.625 196.617188 28.273438 197.253906 27.96875 C 197.683594 27.761719 198.335938 27.574219 198.628906 28.046875 C 198.710938 28.179688 198.761719 28.421875 198.785156 28.777344 C 198.808594 29.207031 198.789062 29.628906 198.726562 30.046875 C 198.691406 30.269531 198.664062 30.480469 198.644531 30.675781 C 198.621094 30.894531 198.589844 31.097656 198.546875 31.292969 C 198.285156 32.519531 198.066406 33.691406 197.683594 34.945312 C 197.675781 34.976562 197.675781 35.003906 197.691406 35.035156 C 198.378906 36.488281 198.867188 37.84375 198.632812 39.371094 C 198.46875 40.457031 198.070312 41.304688 197.523438 42.246094 C 197.09375 42.976562 196.847656 43.707031 196.773438 44.429688 C 196.65625 45.601562 197.023438 46.5625 197.878906 47.3125 C 198.160156 47.5625 198.429688 47.816406 198.6875 48.074219 C 199.144531 48.527344 199.488281 49.035156 199.714844 49.597656 C 199.90625 50.058594 200.09375 50.488281 200.289062 50.886719 C 200.6875 51.714844 201.441406 52.496094 202.136719 53.105469 C 203.726562 54.503906 204.980469 55.609375 206.277344 57.074219 C 208.914062 60.042969 210.652344 63.84375 211.425781 67.769531 C 212.078125 71.082031 212.140625 74.464844 211.914062 77.90625 C 211.902344 78.0625 211.886719 78.222656 211.859375 78.382812 C 211.832031 78.578125 211.863281 78.769531 211.808594 78.960938 C 211.738281 79.230469 211.789062 79.484375 211.722656 79.746094 C 211.617188 80.152344 211.621094 80.574219 211.523438 80.984375 C 211.367188 81.660156 211.207031 82.339844 211.039062 83.027344 C 210.992188 83.214844 210.929688 83.398438 210.851562 83.585938 C 210.742188 83.847656 210.695312 84.117188 210.597656 84.386719 C 210.234375 85.382812 209.777344 86.382812 209.234375 87.390625 C 208.902344 87.996094 208.867188 88.554688 209.125 89.058594 C 209.339844 89.488281 209.664062 89.796875 210.09375 89.984375 C 210.9375 90.363281 211.792969 90.40625 212.664062 90.117188 C 214.792969 89.414062 216.429688 87.46875 217.386719 85.511719 C 217.535156 85.210938 217.679688 84.902344 217.820312 84.585938 C 217.882812 84.445312 217.929688 84.308594 217.964844 84.171875 C 218.019531 83.96875 218.136719 83.828125 218.191406 83.628906 C 218.261719 83.359375 218.308594 83.09375 218.40625 82.832031 C 218.671875 82.136719 218.734375 81.429688 218.882812 80.714844 C 218.917969 80.542969 218.945312 80.371094 218.960938 80.195312 C 218.972656 80.023438 218.992188 79.84375 219.007812 79.65625 C 219.078125 78.945312 219.097656 78.203125 219.066406 77.433594 C 219.003906 75.964844 218.679688 74.585938 218.089844 73.308594 C 217.863281 72.824219 217.734375 72.464844 217.703125 72.238281 C 217.558594 71.230469 218.09375 69.902344 219.257812 69.867188 C 219.625 69.855469 220.113281 70.007812 220.433594 70.238281 C 221.195312 70.789062 221.703125 71.605469 222.074219 72.488281 C 222.550781 73.621094 222.886719 74.839844 223.085938 76.148438 C 223.34375 77.871094 223.394531 79.597656 223.238281 81.332031 C 223.207031 81.679688 223.171875 82.019531 223.136719 82.347656 C 223.105469 82.644531 223.054688 82.96875 222.984375 83.316406 C 222.917969 83.652344 222.851562 83.984375 222.789062 84.316406 C 222.65625 85.03125 222.433594 85.75 222.199219 86.503906 C 221.914062 87.425781 221.527344 88.339844 221.035156 89.253906 C 220.335938 90.5625 219.511719 91.65625 218.566406 92.535156 C 217.511719 93.519531 216.402344 94.191406 215.042969 94.632812 C 213.632812 95.085938 212.097656 95.246094 210.441406 95.105469 C 210.085938 95.074219 209.796875 95.03125 209.566406 94.980469 C 209.195312 94.890625 208.789062 94.898438 208.441406 94.773438 C 208.058594 94.636719 207.667969 94.539062 207.296875 94.390625 C 206.53125 94.085938 205.988281 93.671875 205.351562 93.238281 C 204.644531 92.757812 203.871094 92.609375 203.035156 92.792969 C 202.28125 92.957031 201.511719 92.984375 200.71875 92.871094 C 200.3125 92.816406 199.910156 92.753906 199.511719 92.691406 Z M 199.511719 92.691406 " fill-opacity="1" fill-rule="nonzero"/></g></g></g></svg>