<svg xmlns="http://www.w3.org/2000/svg" xmlns:xlink="http://www.w3.org/1999/xlink" width="376" zoomAndPan="magnify" viewBox="0 0 282 101.249998" height="135" preserveAspectRatio="xMidYMid meet" version="1.0"><defs><g/><clipPath id="87d3d8c520"><path d="M 223 35 L 262 35 L 262 75 L 223 75 Z M 223 35 " clip-rule="nonzero"/></clipPath><clipPath id="cbc785ef83"><path d="M 229.84375 32.53125 L 261.714844 40.089844 L 253.640625 74.136719 L 221.769531 66.578125 Z M 229.84375 32.53125 " clip-rule="nonzero"/></clipPath><clipPath id="1ba5d20bb9"><path d="M 229.84375 32.53125 L 288.519531 46.449219 L 271.855469 116.714844 L 213.179688 102.800781 Z M 229.84375 32.53125 " clip-rule="nonzero"/></clipPath></defs><g fill="#000000" fill-opacity="1"><g transform="translate(22.144979, 66.487502)"><g><path d="M 3.328125 -38.90625 L 32.234375 -38.90625 L 32.234375 -26.671875 L 17.78125 -26.671875 L 17.78125 -22.234375 L 29.453125 -22.234375 L 29.453125 -11.109375 L 17.78125 -11.109375 L 17.78125 0 L 3.328125 0 Z M 3.328125 -38.90625 "/></g></g></g><g fill="#000000" fill-opacity="1"><g transform="translate(51.935624, 66.487502)"><g><path d="M 22.234375 -13.0625 C 23.492188 -13.0625 24.546875 -13.515625 25.390625 -14.421875 C 26.242188 -15.328125 26.671875 -16.539062 26.671875 -18.0625 L 26.671875 -38.90625 L 41.125 -38.90625 L 41.125 -18.0625 C 41.125 -14.351562 40.316406 -11.082031 38.703125 -8.25 C 37.097656 -5.414062 34.878906 -3.191406 32.046875 -1.578125 C 29.210938 0.0234375 25.941406 0.828125 22.234375 0.828125 C 18.523438 0.828125 15.253906 0.0234375 12.421875 -1.578125 C 9.585938 -3.191406 7.363281 -5.414062 5.75 -8.25 C 4.132812 -11.082031 3.328125 -14.351562 3.328125 -18.0625 L 3.328125 -38.90625 L 17.78125 -38.90625 L 17.78125 -18.0625 C 17.78125 -16.539062 18.207031 -15.328125 19.0625 -14.421875 C 19.914062 -13.515625 20.972656 -13.0625 22.234375 -13.0625 Z M 22.234375 -13.0625 "/></g></g></g><g fill="#000000" fill-opacity="1"><g transform="translate(92.842371, 66.487502)"><g><path d="M 41.6875 0 L 25.015625 0 L 18.34375 -12.78125 L 17.78125 -12.78125 L 17.78125 0 L 3.328125 0 L 3.328125 -38.90625 C 3.328125 -38.90625 3.769531 -38.929688 4.65625 -38.984375 C 5.550781 -39.046875 6.757812 -39.113281 8.28125 -39.1875 C 9.800781 -39.257812 11.523438 -39.320312 13.453125 -39.375 C 15.378906 -39.425781 17.378906 -39.453125 19.453125 -39.453125 C 23.523438 -39.453125 26.875 -38.878906 29.5 -37.734375 C 32.132812 -36.585938 34.082031 -34.992188 35.34375 -32.953125 C 36.601562 -30.921875 37.234375 -28.550781 37.234375 -25.84375 C 37.234375 -23.84375 36.984375 -22.144531 36.484375 -20.75 C 35.984375 -19.363281 35.398438 -18.242188 34.734375 -17.390625 C 34.066406 -16.546875 33.484375 -15.9375 32.984375 -15.5625 C 32.484375 -15.1875 32.234375 -15 32.234375 -15 Z M 17.78125 -22.78125 L 19.453125 -22.78125 C 20.410156 -22.78125 21.203125 -23.085938 21.828125 -23.703125 C 22.460938 -24.316406 22.78125 -25.03125 22.78125 -25.84375 C 22.78125 -26.695312 22.460938 -27.421875 21.828125 -28.015625 C 21.203125 -28.609375 20.410156 -28.90625 19.453125 -28.90625 L 17.78125 -28.90625 Z M 17.78125 -22.78125 "/></g></g></g><g fill="#000000" fill-opacity="1"><g transform="translate(129.858474, 66.487502)"><g/></g></g><g fill="#000000" fill-opacity="1"><g transform="translate(137.416926, 66.487502)"><g><path d="M 39.734375 -7.21875 L 33.0625 0.5625 L 27.796875 -4.171875 C 27.796875 -4.171875 27.523438 -3.921875 26.984375 -3.421875 C 26.441406 -2.921875 25.644531 -2.335938 24.59375 -1.671875 C 23.539062 -1.003906 22.257812 -0.421875 20.75 0.078125 C 19.25 0.578125 17.519531 0.828125 15.5625 0.828125 C 12.59375 0.828125 10.070312 0.320312 8 -0.6875 C 5.925781 -1.707031 4.351562 -3.078125 3.28125 -4.796875 C 2.207031 -6.523438 1.671875 -8.445312 1.671875 -10.5625 C 1.671875 -12.226562 2.003906 -13.71875 2.671875 -15.03125 C 3.335938 -16.34375 4.113281 -17.441406 5 -18.328125 C 5.882812 -19.222656 6.660156 -19.910156 7.328125 -20.390625 C 8.003906 -20.878906 8.34375 -21.125 8.34375 -21.125 C 8.34375 -21.125 8.0625 -21.445312 7.5 -22.09375 C 6.945312 -22.738281 6.390625 -23.644531 5.828125 -24.8125 C 5.273438 -25.976562 5 -27.34375 5 -28.90625 C 5 -30.9375 5.515625 -32.796875 6.546875 -34.484375 C 7.585938 -36.171875 9.050781 -37.515625 10.9375 -38.515625 C 12.832031 -39.515625 15.019531 -40.015625 17.5 -40.015625 C 19.84375 -40.015625 21.910156 -39.523438 23.703125 -38.546875 C 25.503906 -37.566406 26.910156 -36.269531 27.921875 -34.65625 C 28.941406 -33.039062 29.453125 -31.304688 29.453125 -29.453125 C 29.453125 -28.347656 29.179688 -27.265625 28.640625 -26.203125 C 28.109375 -25.148438 27.5 -24.195312 26.8125 -23.34375 C 26.125 -22.488281 25.507812 -21.8125 24.96875 -21.3125 C 24.4375 -20.8125 24.171875 -20.5625 24.171875 -20.5625 L 26.953125 -18.0625 L 32.234375 -24.453125 L 39.734375 -18.0625 L 34.453125 -11.671875 Z M 15 -28.34375 C 15 -27.789062 15.203125 -27.253906 15.609375 -26.734375 C 16.023438 -26.210938 16.441406 -25.796875 16.859375 -25.484375 C 17.285156 -25.171875 17.5 -25.015625 17.5 -25.015625 C 17.5 -25.015625 17.703125 -25.171875 18.109375 -25.484375 C 18.523438 -25.796875 18.945312 -26.210938 19.375 -26.734375 C 19.800781 -27.253906 20.015625 -27.789062 20.015625 -28.34375 C 20.015625 -29.195312 19.769531 -29.875 19.28125 -30.375 C 18.800781 -30.875 18.207031 -31.125 17.5 -31.125 C 16.800781 -31.125 16.207031 -30.875 15.71875 -30.375 C 15.238281 -29.875 15 -29.195312 15 -28.34375 Z M 13.34375 -11.953125 C 13.34375 -11.140625 13.644531 -10.425781 14.25 -9.8125 C 14.863281 -9.195312 15.578125 -8.890625 16.390625 -8.890625 C 17.242188 -8.890625 17.957031 -9.023438 18.53125 -9.296875 C 19.101562 -9.578125 19.535156 -9.859375 19.828125 -10.140625 C 20.128906 -10.421875 20.28125 -10.5625 20.28125 -10.5625 L 15 -15 C 15 -15 14.859375 -14.859375 14.578125 -14.578125 C 14.304688 -14.304688 14.03125 -13.9375 13.75 -13.46875 C 13.476562 -13.007812 13.34375 -12.503906 13.34375 -11.953125 Z M 13.34375 -11.953125 "/></g></g></g><g fill="#000000" fill-opacity="1"><g transform="translate(173.599322, 66.487502)"><g/></g></g><g fill="#000000" fill-opacity="1"><g transform="translate(181.157774, 66.487502)"><g><path d="M 2.21875 -19.453125 C 2.21875 -22.304688 2.734375 -24.960938 3.765625 -27.421875 C 4.804688 -29.890625 6.265625 -32.039062 8.140625 -33.875 C 10.015625 -35.707031 12.191406 -37.140625 14.671875 -38.171875 C 17.148438 -39.210938 19.851562 -39.734375 22.78125 -39.734375 C 25.414062 -39.734375 27.710938 -39.425781 29.671875 -38.8125 C 31.640625 -38.207031 33.257812 -37.492188 34.53125 -36.671875 C 35.8125 -35.859375 36.765625 -35.144531 37.390625 -34.53125 C 38.023438 -33.925781 38.34375 -33.625 38.34375 -33.625 L 31.671875 -23.0625 C 31.671875 -23.0625 31.335938 -23.320312 30.671875 -23.84375 C 30.003906 -24.363281 29.125 -24.875 28.03125 -25.375 C 26.945312 -25.875 25.753906 -26.125 24.453125 -26.125 C 22.523438 -26.125 20.929688 -25.5 19.671875 -24.25 C 18.410156 -23.007812 17.78125 -21.410156 17.78125 -19.453125 C 17.78125 -17.523438 18.410156 -15.929688 19.671875 -14.671875 C 20.929688 -13.410156 22.523438 -12.78125 24.453125 -12.78125 C 25.753906 -12.78125 26.945312 -13.039062 28.03125 -13.5625 C 29.125 -14.082031 30.003906 -14.59375 30.671875 -15.09375 C 31.335938 -15.59375 31.671875 -15.84375 31.671875 -15.84375 L 38.34375 -5.28125 C 38.34375 -5.28125 38.023438 -4.972656 37.390625 -4.359375 C 36.765625 -3.753906 35.8125 -3.039062 34.53125 -2.21875 C 33.257812 -1.40625 31.640625 -0.691406 29.671875 -0.078125 C 27.710938 0.523438 25.414062 0.828125 22.78125 0.828125 C 19.851562 0.828125 17.148438 0.3125 14.671875 -0.71875 C 12.191406 -1.757812 10.015625 -3.195312 8.140625 -5.03125 C 6.265625 -6.863281 4.804688 -9.007812 3.765625 -11.46875 C 2.734375 -13.9375 2.21875 -16.597656 2.21875 -19.453125 Z M 2.21875 -19.453125 "/></g></g></g><g fill="#000000" fill-opacity="1"><g transform="translate(217.062272, 66.487502)"><g><path d="M 21.125 -27.234375 C 20.007812 -27.234375 18.988281 -26.628906 18.0625 -25.421875 C 17.132812 -24.222656 16.671875 -22.234375 16.671875 -19.453125 C 16.671875 -16.671875 17.132812 -14.675781 18.0625 -13.46875 C 18.988281 -12.269531 20.007812 -11.671875 21.125 -11.671875 C 22.226562 -11.671875 23.242188 -12.269531 24.171875 -13.46875 C 25.097656 -14.675781 25.5625 -16.671875 25.5625 -19.453125 C 25.5625 -22.234375 25.097656 -24.222656 24.171875 -25.421875 C 23.242188 -26.628906 22.226562 -27.234375 21.125 -27.234375 Z M 21.125 0.828125 C 18.488281 0.828125 16.019531 0.335938 13.71875 -0.640625 C 11.425781 -1.617188 9.414062 -3.015625 7.6875 -4.828125 C 5.96875 -6.648438 4.625 -8.789062 3.65625 -11.25 C 2.695312 -13.71875 2.21875 -16.453125 2.21875 -19.453125 C 2.21875 -22.453125 2.695312 -25.179688 3.65625 -27.640625 C 4.625 -30.109375 5.96875 -32.25 7.6875 -34.0625 C 9.414062 -35.882812 11.425781 -37.285156 13.71875 -38.265625 C 16.019531 -39.242188 18.488281 -39.734375 21.125 -39.734375 C 23.75 -39.734375 26.207031 -39.242188 28.5 -38.265625 C 30.800781 -37.285156 32.8125 -35.882812 34.53125 -34.0625 C 36.257812 -32.25 37.601562 -30.109375 38.5625 -27.640625 C 39.53125 -25.179688 40.015625 -22.453125 40.015625 -19.453125 C 40.015625 -16.453125 39.53125 -13.71875 38.5625 -11.25 C 37.601562 -8.789062 36.257812 -6.648438 34.53125 -4.828125 C 32.8125 -3.015625 30.800781 -1.617188 28.5 -0.640625 C 26.207031 0.335938 23.75 0.828125 21.125 0.828125 Z M 21.125 0.828125 "/></g></g></g><g clip-path="url(#87d3d8c520)"><g clip-path="url(#cbc785ef83)"><g clip-path="url(#1ba5d20bb9)"><path fill="#ffcc00" d="M 248.785156 111.035156 L 247.796875 110.800781 C 247.25 110.597656 246.695312 110.429688 246.132812 110.292969 C 245.382812 110.105469 244.820312 109.960938 244.453125 109.859375 C 243.625 109.625 242.863281 109.445312 242.164062 109.324219 C 241.300781 109.175781 240.425781 108.914062 239.542969 108.773438 C 239.023438 108.695312 238.515625 108.574219 237.996094 108.476562 L 237.945312 108.464844 C 237.675781 108.382812 237.40625 108.292969 237.140625 108.199219 C 236.824219 108.082031 236.507812 108.027344 236.207031 107.882812 C 236.078125 107.824219 235.949219 107.765625 235.828125 107.714844 C 235.222656 107.453125 234.742188 107.078125 234.382812 106.589844 C 233.433594 105.300781 235.011719 104.035156 236.113281 103.832031 C 236.144531 103.824219 236.167969 103.808594 236.179688 103.777344 C 236.195312 103.746094 236.191406 103.71875 236.175781 103.6875 C 236.0625 103.519531 235.964844 103.34375 235.882812 103.164062 C 235.34375 102.007812 234.921875 100.796875 234.617188 99.535156 C 234.5625 99.308594 234.507812 99.105469 234.449219 98.917969 C 234.425781 98.84375 234.398438 98.839844 234.367188 98.910156 C 233.863281 99.957031 233.367188 100.96875 232.875 101.949219 C 232.464844 102.769531 232.066406 103.460938 231.683594 104.019531 C 231.046875 104.953125 230.277344 105.648438 229.082031 105.804688 C 227.734375 105.984375 226.363281 105.753906 224.96875 105.109375 C 224.59375 104.941406 224.292969 104.71875 224.058594 104.445312 C 223.664062 103.984375 223.714844 103.402344 223.894531 102.839844 C 223.988281 102.539062 224.113281 102.296875 224.269531 102.101562 C 224.757812 101.5 225.40625 101.222656 226.222656 101.269531 C 227.308594 101.332031 227.890625 101.027344 228.445312 100.039062 C 228.523438 99.894531 228.609375 99.804688 228.625 99.625 C 228.628906 99.589844 228.640625 99.554688 228.664062 99.523438 C 228.75 99.382812 228.816406 99.230469 228.859375 99.070312 C 229.121094 98.121094 229.285156 97.328125 229.355469 96.695312 C 229.40625 96.253906 229.554688 95.839844 229.570312 95.398438 C 229.585938 95.046875 229.722656 94.71875 229.71875 94.378906 C 229.71875 94.164062 229.746094 93.953125 229.800781 93.746094 C 229.871094 93.492188 229.816406 93.246094 229.875 92.992188 C 229.925781 92.769531 229.949219 92.535156 229.945312 92.292969 C 229.941406 92.191406 229.984375 92.105469 229.996094 92.007812 C 230.171875 90.140625 230.347656 88.277344 230.527344 86.410156 C 230.578125 85.855469 230.628906 85.238281 230.671875 84.558594 C 230.816406 82.265625 230.605469 80.023438 230.027344 77.828125 C 229.464844 75.664062 228.679688 73.527344 227.929688 71.4375 C 227.242188 69.515625 226.730469 67.523438 226.839844 65.503906 C 226.855469 65.230469 226.886719 64.960938 226.9375 64.691406 C 226.984375 64.441406 227.027344 64.175781 227.070312 63.890625 C 227.148438 63.390625 227.363281 62.9375 227.472656 62.449219 C 227.507812 62.28125 227.570312 62.121094 227.652344 61.972656 C 227.761719 61.773438 227.792969 61.558594 227.894531 61.347656 C 228.25 60.585938 228.65625 59.816406 229.113281 59.035156 C 229.460938 58.4375 229.773438 57.789062 230.023438 57.125 C 230.09375 56.9375 230.164062 56.757812 230.238281 56.578125 C 230.308594 56.394531 230.371094 56.214844 230.417969 56.03125 C 230.644531 55.179688 230.828125 54.390625 230.96875 53.667969 C 231.027344 53.351562 231.070312 52.957031 231.089844 52.480469 C 231.121094 51.695312 230.953125 50.898438 230.421875 50.347656 C 230.109375 50.03125 229.738281 49.691406 229.304688 49.332031 C 228.285156 48.492188 227.644531 47.484375 227.378906 46.304688 C 227.296875 45.945312 227.292969 45.578125 227.367188 45.199219 C 227.433594 44.875 227.273438 44.542969 227.246094 44.222656 C 227.21875 43.890625 227.277344 43.585938 227.417969 43.304688 C 227.464844 43.21875 227.539062 43.167969 227.636719 43.160156 C 227.894531 43.136719 228.144531 43.121094 228.378906 43.105469 C 229.363281 43.046875 230.140625 42.546875 230.53125 41.660156 C 230.921875 40.777344 231.6875 40.332031 232.597656 40.066406 C 233.636719 39.765625 234.714844 39.617188 235.835938 39.617188 C 235.894531 39.617188 235.949219 39.625 236.003906 39.644531 C 236.039062 39.652344 236.074219 39.652344 236.109375 39.640625 C 236.21875 39.605469 236.324219 39.605469 236.421875 39.640625 C 236.460938 39.652344 236.488281 39.640625 236.503906 39.601562 C 236.6875 39.175781 236.824219 38.757812 236.914062 38.351562 C 237.011719 37.917969 237.222656 37.554688 237.316406 37.125 C 237.375 36.867188 237.511719 36.648438 237.601562 36.390625 C 237.675781 36.175781 237.792969 35.949219 237.949219 35.714844 C 238.269531 35.230469 238.726562 35.328125 238.945312 35.832031 C 239.050781 36.078125 239.183594 36.3125 239.269531 36.558594 C 239.699219 37.804688 240.113281 39.09375 240.507812 40.421875 C 240.53125 40.496094 240.574219 40.511719 240.640625 40.46875 C 241.6875 39.769531 242.804688 39.066406 243.984375 38.359375 C 244.738281 37.90625 245.484375 37.503906 246.210938 37.152344 C 246.703125 36.917969 247.449219 36.707031 247.78125 37.246094 C 247.875 37.394531 247.933594 37.671875 247.957031 38.082031 C 247.988281 38.570312 247.964844 39.050781 247.894531 39.527344 C 247.855469 39.785156 247.824219 40.023438 247.800781 40.246094 C 247.773438 40.496094 247.738281 40.726562 247.6875 40.949219 C 247.386719 42.351562 247.140625 43.6875 246.703125 45.121094 C 246.691406 45.152344 246.695312 45.1875 246.710938 45.222656 C 247.496094 46.882812 248.050781 48.425781 247.785156 50.171875 C 247.597656 51.410156 247.144531 52.378906 246.519531 53.453125 C 246.03125 54.289062 245.746094 55.121094 245.664062 55.945312 C 245.53125 57.285156 245.949219 58.382812 246.921875 59.238281 C 247.246094 59.523438 247.554688 59.8125 247.847656 60.105469 C 248.367188 60.625 248.757812 61.203125 249.019531 61.84375 C 249.238281 62.371094 249.453125 62.859375 249.675781 63.316406 C 250.132812 64.261719 250.992188 65.15625 251.78125 65.851562 C 253.597656 67.445312 255.03125 68.710938 256.511719 70.378906 C 259.523438 73.769531 261.507812 78.105469 262.390625 82.589844 C 263.132812 86.371094 263.203125 90.230469 262.945312 94.160156 C 262.933594 94.339844 262.914062 94.519531 262.886719 94.703125 C 262.851562 94.925781 262.886719 95.144531 262.828125 95.363281 C 262.746094 95.671875 262.800781 95.960938 262.726562 96.257812 C 262.609375 96.726562 262.609375 97.203125 262.5 97.671875 C 262.324219 98.441406 262.136719 99.21875 261.945312 100.003906 C 261.894531 100.21875 261.824219 100.429688 261.734375 100.640625 C 261.605469 100.941406 261.554688 101.246094 261.445312 101.554688 C 261.027344 102.695312 260.507812 103.835938 259.886719 104.984375 C 259.507812 105.679688 259.46875 106.3125 259.761719 106.890625 C 260.007812 107.378906 260.378906 107.730469 260.867188 107.949219 C 261.828125 108.378906 262.808594 108.425781 263.804688 108.097656 C 266.234375 107.296875 268.097656 105.074219 269.191406 102.839844 C 269.359375 102.496094 269.527344 102.144531 269.6875 101.78125 C 269.757812 101.625 269.816406 101.46875 269.855469 101.308594 C 269.914062 101.082031 270.050781 100.917969 270.109375 100.691406 C 270.191406 100.386719 270.246094 100.082031 270.359375 99.78125 C 270.660156 98.988281 270.730469 98.179688 270.902344 97.363281 C 270.941406 97.167969 270.972656 96.972656 270.988281 96.773438 C 271.003906 96.574219 271.023438 96.371094 271.046875 96.15625 C 271.125 95.34375 271.148438 94.5 271.109375 93.621094 C 271.039062 91.941406 270.667969 90.371094 269.992188 88.910156 C 269.738281 88.355469 269.589844 87.949219 269.554688 87.6875 C 269.386719 86.539062 270 85.023438 271.328125 84.980469 C 271.75 84.96875 272.304688 85.140625 272.667969 85.40625 C 273.539062 86.035156 274.121094 86.964844 274.542969 87.972656 C 275.085938 89.269531 275.472656 90.660156 275.695312 92.152344 C 275.992188 94.117188 276.050781 96.089844 275.871094 98.070312 C 275.835938 98.464844 275.796875 98.851562 275.757812 99.230469 C 275.722656 99.570312 275.660156 99.9375 275.582031 100.335938 C 275.503906 100.71875 275.429688 101.097656 275.359375 101.476562 C 275.210938 102.292969 274.953125 103.113281 274.6875 103.976562 C 274.359375 105.023438 273.917969 106.070312 273.359375 107.109375 C 272.558594 108.605469 271.617188 109.855469 270.542969 110.859375 C 269.335938 111.984375 268.070312 112.75 266.519531 113.25 C 264.910156 113.773438 263.15625 113.953125 261.261719 113.789062 C 260.859375 113.757812 260.527344 113.707031 260.265625 113.648438 C 259.84375 113.546875 259.378906 113.558594 258.980469 113.414062 C 258.542969 113.257812 258.097656 113.148438 257.671875 112.976562 C 256.800781 112.628906 256.179688 112.15625 255.453125 111.660156 C 254.648438 111.113281 253.765625 110.941406 252.808594 111.152344 C 251.953125 111.339844 251.070312 111.371094 250.164062 111.242188 C 249.703125 111.179688 249.246094 111.109375 248.785156 111.035156 Z M 248.785156 111.035156 " fill-opacity="1" fill-rule="nonzero"/></g></g></g></svg>